<svg xmlns="http://www.w3.org/2000/svg" data-name="Layer 1" viewBox="0 0 1080 1080"><path fill="#e6edfa" d="M945.223,561.93c-10.09,47.62-37.18,89.75-74.79,125.34-80.65,76.31-209.71,122.53-323.52,128.16q-3.135.15-6.24.27c-14.05.51-28.74.43-43.86-.27-95.76-4.45-208.41-33.78-279.52-94.5-28.88-24.65-50.91-54.48-62.18-89.92-1.02-3.23-1.97-6.51-2.82-9.86-15.91-62.04-2.76-143.1,46.29-184.17,19.8-16.58,44.52-25.87,69.49-30.72h.01a281.92,281.92,0,0,1,58.21-4.66,366.94,366.94,0,0,1,57.95,5.65c10.38,1.91,20.5,4.41,30.88,6.92h.01c5.94,1.43,11.96,2.87,18.17,4.2h.01a260.587,260.587,0,0,0,48.19,6.21,242.226,242.226,0,0,0,34.37-1.49c4.76-.54,21.35-2.54,51.72-10.99,89.72-24.98,108.58-53.14,159.05-65.97,35.62-9.06,83.72-9.67,125.78,6.45a149.6,149.6,0,0,1,42.15,24.24h.01c1.92,1.59,3.8,3.22,5.64,4.93,39.03,36.13,48.44,88.39,49.18,127.36C949.953,538.22,945.653,559.91,945.223,561.93Z"/><path fill="#d8dff3" d="M944.585,561.927C912.446,713.514,708.137,809.561,540.028,815.7c-139.163,5.084-342.165-48.211-385.56-184.7q-1.535-4.837-2.823-9.852c141.874,38.461,294.243,38.707,435.013-3.954,120.638-36.558,239.561-102.888,362.1-108.085C949.31,538.216,945.014,559.908,944.585,561.927Z"/><path fill="#e6edfa" d="M423.337,378.061c-33.648-7.246-69.282-21.178-85.846-51.35-5.949-10.835-8.949-24.074-4.576-35.635,5.872-15.526,23.177-23.726,39.6-26.115a97.959,97.959,0,0,1,59.846,10.491C457.3,288.8,477.3,313.3,505.308,317.248c21.426,3.017,42.227-6.89,62.865-13.392s45.881-8.692,61.395,6.391c3.709,3.606,4.328,8.4,4.686,10.358,3.027,16.5-13.317,31.641-19.227,37.116-8.067,7.474-26.8,21.594-85.435,26.323C498.04,386.588,465.868,387.22,423.337,378.061Z"/><path fill="#cad4ef" d="M754.22,593.15l-.54-.1-.11-.02h-.01l-9.68-1.68-48.78-8.5-75.12-13.08-24.72-4.3-46.78,28.85L430.26,667.21l-22.23,13.71,21.4,4.1L778,751.78c61.49-32.46,113.54-76.33,143.51-129.51Z"/><path fill="#8ea2a5" d="M755.26,590.65l-.47-.1-8.49-1.63-50.81-9.8L626.1,565.74l-6.12,4.03-59.19,39,125.3,59.81,60.71-67.84a.5.5,0,0,1,.07-.08l5.46-6.08.18-.21,1.17-1.32.74-.82.01-.01,1.32-1.48Z"/><path fill="#b74143" d="M618.81,497.14l-76.47,47.15,153.72,29.44,73.41-50.36Z"/><polygon fill="#d24d51" points="542.338 544.292 554.264 641.413 686.094 668.58 696.06 573.733 542.338 544.292"/><polygon fill="#b74143" points="769.473 523.37 696.06 573.733 686.094 668.58 747.317 624.742 769.473 523.37"/><path fill="#e66767" d="M773.83,522.42a4.452,4.452,0,0,0-3.59-3.45L619.57,492.74a4.472,4.472,0,0,0-3.11.6l-76.47,47.15a4.471,4.471,0,0,0,1.51,8.19l1.41.27,152.31,29.17c.12.02.25.04.37.05a3.708,3.708,0,0,0,.47.03,4.375,4.375,0,0,0,2.52-.79l69.5-47.67,3.92-2.69A4.468,4.468,0,0,0,773.83,522.42ZM554.45,542.07l65.26-40.25,138.2,24.07L695.07,569Z"/><path fill="#32477b" d="M759.866,566.482l-1.359,5.916C721.2,637.48,638.482,606.927,616.328,597.066c-5.631-2.506-12.309,3.937-6.874,6.677a13.452,13.452,0,0,0,3.345,1.114c90.149,52.77,134.844-4.1,141.265-12.467a22.34,22.34,0,0,0,2.029-3.172C770.242,570.97,759.866,566.482,759.866,566.482Z"/><path fill="#bac7eb" d="M777.81,751.88c-73.03,38.52-159.35,60.96-237.78,63.82a571.686,571.686,0,0,1-98.8-5.4c-11.02-1.53-22.11-3.39-33.2-5.57V680.92l21.4,4.11Z"/><path fill="#687ed4" d="M487.636,607.03a41.506,41.506,0,0,1-25.4,16.53,42.843,42.843,0,0,1-7.51.84l-22.51.52-.65,13.98-2.51,54.18-15.57.09-3.691.02-145.179.85-1.5.01-11.35.07-1.55.01-12.18.07,3.32-55.11c-8.18,13.29-19.66,20.8-31.84,23.57-.63.15-1.27.28-1.9.39-.13.02-.26.05-.39.07a49.894,49.894,0,0,1-8.95.8,54.573,54.573,0,0,1-42.56-20.62c-.31-.4-.61-.8-.91-1.21a47.368,47.368,0,0,1-4.08-6.65c-4.96-9.73-6.81-21.53-3.87-34.71l5.3-23.76.45-2.02,11.47-51.46.4-1.81,3.2-14.35A89.742,89.742,0,0,1,181.8,475.27c.481-.7.981-1.4,1.491-2.08.79-1.07,1.61-2.12,2.45-3.15a90.2,90.2,0,0,1,49.36-30.91c1.57-.38,3.159-.7,4.76-.99.5-.09.99-.18,1.49-.25a89.6,89.6,0,0,1,14.63-1.16l148.59.38h.189c.631.01,1.261.02,1.881.04q1.875.06,3.72.24a64.228,64.228,0,0,1,26.43,8.5c.44.25.87.51,1.31.78a64.19,64.19,0,0,1,18.159,16.77c.351.47.691.95,1.011,1.43.38.54.75,1.09,1.09,1.65a63.224,63.224,0,0,1,7.32,15.53l4.88,15.46.61,1.91,13.18,41.74.5,1.57,8.67,27.44a41.574,41.574,0,0,1-5.88,36.86Z"/><polygon fill="#4863c9" points="418.566 557.444 429.054 557.444 426.103 494.88 418.566 557.444"/><path fill="#e29474" d="M368.671,417s-19.672,1.349-28.218-2.3a49.166,49.166,0,0,0,29.012,16.206Z"/><path fill="#ffc1c2" d="M321.966,348.646l-4.842-.842a16.842,16.842,0,0,0-19.478,13.707c-.087.5-.152,1.011-.193,1.521h0a14.1,14.1,0,0,0,12.908,15.194h0l9.266.754-4.319,53.1c-.454,14.906,10.385,27.607,23.71,27.907h0a25.9,25.9,0,0,0,27.952-27.282l-.7-12.334s34.594,1.754,17.924-78.239l-47.864-16.2Z"/><polygon fill="#ed9c9c" points="357.602 395.081 356.599 392.279 368.463 388.031 362.489 369.095 365.327 368.2 372.164 389.868 357.602 395.081"/><ellipse cx="347.994" cy="368.14" fill="#32477b" rx="3.828" ry="2.233" transform="rotate(-89.132 347.997 368.14)"/><path fill="#32477b" d="M338.311,366.008a.745.745,0,0,1-.022-1.448c.39-.1,9.6-2.4,15.747.271a.744.744,0,0,1-.6,1.364h0c-5.667-2.472-14.693-.216-14.783-.192A.763.763,0,0,1,338.311,366.008Z"/><ellipse cx="379.708" cy="369.247" fill="#32477b" rx="3.828" ry="2.233" transform="rotate(-89.132 379.71 369.247)"/><path fill="#32477b" d="M370.025 367.115a.745.745 0 01-.022-1.448c.389-.1 9.591-2.4 15.745.27a.744.744 0 11-.594 1.365h0c-5.669-2.472-14.694-.215-14.784-.192A.759.759 0 01370.025 367.115zM333.088 356.547l18.418.879a2.384 2.384 0 002.282-3.377l-.35-.766a3.728 3.728 0 00-4.214-2.081l-16.281 3.687a.839.839 0 00.145 1.658zM390.04 356.491l-16.091 1.4a2.084 2.084 0 01-2.113-2.877l.281-.682a3.267 3.267 0 013.617-1.966l14.378 2.671a.735.735 0 01-.072 1.455z"/><path fill="#32477b" d="M395.381,337.936a27.548,27.548,0,0,1-12.768,8.991c-13.574,4.366-34.808.048-42.235-4.27a4.41,4.41,0,0,0-6.029,1.6c-.055.093-.106.189-.153.286l-8.926,18.184a1.575,1.575,0,0,1-1.637.9,1.516,1.516,0,0,1-1.273-1.431l-.338-7.808a5.885,5.885,0,0,0-4.874-5.543,16.255,16.255,0,0,0-18.8,13.226,16.092,16.092,0,0,0-.183,4.12,13.458,13.458,0,0,0,12.428,12.019h.014l8.957.729-1.641,20.178c-21.8-24.977-31.528-48.885-29.979-59.171a50.239,50.239,0,0,1,3.8-12.649,45.888,45.888,0,0,1,7.689-11.151c13.534-15.334,12.056-15.62,17.64-21,4.212-4.058,25.31-24.384,49.421-20.622,3.845.6,11.53,1.8,17.311,8.085,10.451,11.363,5.228,29.077,4.733,30.67,6.354,2.223,11.084,6.942,11.733,12.444C400.89,331.015,397.524,335.243,395.381,337.936Z"/><path fill="#ffc1c2" d="M387.784,388.82l-6.228,2.854a3.52,3.52,0,0,0-2.044,3.2v18.945a23.226,23.226,0,0,1-16.322,22.171l-27.633,8.6-2.111.654-11.008,6.176-40.046-15.348s76.488-63.7,105.155-52.9A3.062,3.062,0,0,1,387.784,388.82Z"/><path fill="#ed9c9c" d="M381 413.813h-2.973V394.871a5.014 5.014 0 012.913-4.544l6.227-2.86a1.713 1.713 0 00.938-1.736 1.187 1.187 0 00-.9-1.119C359.228 377.9 315.435 413.121 315 413.477l-1.875-2.307c1.839-1.494 45.372-36.5 74.776-29.449a4.11 4.11 0 013.164 3.721 4.676 4.676 0 01-2.656 4.726l-6.227 2.86A2.033 2.033 0 00381 394.871zM373 429.936a23.126 23.126 0 01-9.811 6.05l-27.633 8.6c-3.8-1.807-5.634-3.746-3.694-4.311C338.812 438.26 373 429.936 373 429.936z"/><polygon fill="#687ed4" points="277.461 439.409 331.865 469.29 343.419 448.271 293.316 413.602 277.461 439.409"/><polygon fill="#4863c9" points="185.118 607.009 182.588 605.811 279.315 436.552 281.845 437.75 185.118 607.009"/><path fill="#4863c9" d="M314.883,501.064l-56,135.64a32.957,32.957,0,0,0-1.242,15.156h0a32.959,32.959,0,0,0,29.42,27.849l138.63,13.37-187.66,1.12,3.319-55.1Z"/><path fill="#4863c9" d="M487.632 607.03A41.442 41.442 0 01454.721 624.4l-22.5.521H258.37l5.864-15.876zM207.226 663.12a49.894 49.894 0 01-8.95.8 54.573 54.573 0 01-42.56-20.62c-.31-.4-.61-.8-.91-1.21a47.368 47.368 0 01-4.08-6.65 38.113 38.113 0 0156.5 27.68z"/><path fill="#4863c9" d="M487.636 607.03a41.506 41.506 0 01-25.4 16.53 37.4 37.4 0 01-.54-6.39 38.079 38.079 0 0133.63-37.81A41.556 41.556 0 01487.636 607.03zM458.356 466.52a38.118 38.118 0 01-48-29.13 64.228 64.228 0 0126.43 8.5c.44.25.87.51 1.31.78a64.19 64.19 0 0118.159 16.77c.351.47.691.95 1.011 1.43C457.646 465.41 458.016 465.96 458.356 466.52zM235.1 439.13a38.105 38.105 0 01-49.36 30.91A90.2 90.2 0 01235.1 439.13z"/><path fill="#4863c9" d="M235.076 489.02c-4.92 8.23-12.38 14.55-19.59 20.67-6.89 5.84-14.01 11.88-18.82 19.53a89.829 89.829 0 00-4.94 9.48 84.176 84.176 0 01-5.46 10.31c-5.2 7.95-12.93 13.89-20.49 19.13q-6.675 4.62-13.62 8.83l.45-2.02q6.255-3.855 12.31-8.04c7.45-5.15 15.03-10.98 20.1-18.72a83.883 83.883 0 005.35-10.13 90.238 90.238 0 015.03-9.64c4.93-7.84 12.14-13.96 19.12-19.88 7.12-6.03 14.48-12.27 19.27-20.29 8.94-14.94 7.93-33.6 6.07-50.11.5-.09.99-.18 1.49-.25C243.236 454.67 244.266 473.66 235.076 489.02zM322.136 488.32c-1.33 8.24-4.61 16.05-7.78 23.61-1.72 4.1-3.5 8.34-4.94 12.59-2.97 8.78-4.67 18.08-6.32 27.09a224.675 224.675 0 01-5.14 23.41c-3.55 12-9.13 23.44-14.53 34.51-6.01 12.34-12.23 25.09-15.58 38.56-3.72 14.91-3.87 30.5-3.23 45.95l-1.5.01c-.65-15.54-.49-31.25 3.27-46.33 3.39-13.61 9.65-26.44 15.7-38.85 5.37-11.01 10.919-22.4 14.43-34.27a224.706 224.706 0 005.11-23.26c1.65-9.06 3.36-18.42 6.37-27.3 1.46-4.3 3.25-8.57 4.98-12.69 3.14-7.48 6.38-15.2 7.68-23.27 2.17-13.49-1.17-27.61-4.111-40.06-.359-1.51-.729-2.82-1.689-3.58-1.03-.81-2.561-.81-4.16-.73-8.97.44-20.14.99-28.25 7.07-4.42 3.31-7.57 7.94-10.93 13.21A709.429 709.429 0 00222.3 555.11q-1.783 3.96-3.529 7.94c-6.77 15.33-13.77 31.18-23.7 45a123.832 123.832 0 01-39.35 35.25c-.31-.4-.61-.8-.91-1.21a122.29 122.29 0 0039.05-34.91c9.83-13.7 16.8-29.47 23.54-44.73 1.17-2.66 2.34-5.31 3.53-7.96a711 711 0 0149.32-91.31c3.45-5.39 6.68-10.14 11.3-13.6 8.471-6.35 19.9-6.92 29.081-7.37 1.44-.07 3.6-.17 5.15 1.05 1.34 1.06 1.82 2.69 2.229 4.42C320.986 460.26 324.356 474.53 322.136 488.32z"/><path fill="#4863c9" d="M281.706 522.07c-2.23 7.89-6.31 15.11-10.26 22.08-2.53 4.48-5.14 9.1-7.24 13.86-9.54 21.62-8.77 46.16-8.02 69.9.319 10.08.65 20.5.19 30.6a229.47 229.47 0 01-4.61 35.61l-1.55.01a226.967 226.967 0 004.66-35.69c.46-10.04.129-20.43-.19-30.48-.75-23.91-1.53-48.63 8.15-70.56a156.821 156.821 0 017.31-13.98c3.9-6.9 7.93-14.04 10.12-21.76 2.58-9.12 1.47-19.46-2.84-26.35a6.224 6.224 0 00-5.86-2.97 6.475 6.475 0 00-5.51 4.04 248.253 248.253 0 00-17.61 66.08c-.39 3.13-.72 6.33-1.05 9.42-1.13 10.9-2.31 22.18-5.96 32.68-3.42 9.84-8.96 18.82-14.32 27.51l-2.13 3.48q-8.13 13.29-15.47 27.11c-.63.15-1.27.28-1.9.39q7.62-14.415 16.09-28.29c.71-1.16 1.42-2.31 2.14-3.47 5.31-8.62 10.8-17.54 14.17-27.22 3.6-10.34 4.77-21.53 5.89-32.35.33-3.1.66-6.3 1.05-9.44a249.92 249.92 0 0117.72-66.48 8.044 8.044 0 016.77-4.95 7.7 7.7 0 017.25 3.66C283.216 501.74 284.406 512.56 281.706 522.07zM471.166 499.42c-6.21 10.54-13.22 20.71-20.05 30.63-15.01 21.79-30.53 44.32-37.18 70.14-1.17 4.52-2.07 9.21-2.95 13.74-1.38 7.16-2.82 14.56-5.32 21.56-10.24 28.67-40.61 48.53-70.86 48.53a66.174 66.174 0 01-14.88-1.67c-3.54-.82-8.48-2.39-10.47-6.54a13.959 13.959 0 01-.84-7.38c.7-7.5 2.94-14.79 5.1-21.85A145.9 145.9 0 00318 630.56c1.37-7.34 1.6-14.97 1.82-22.35.13-4.17.26-8.48.6-12.71 3.58-45.37 30.72-85.94 55.87-120.41Q390.221 456 404.755 437.11c.631.01 1.261.02 1.881.04q-14.865 19.26-29.14 38.82c-25.03 34.3-52.03 74.66-55.59 119.65-.33 4.19-.46 8.48-.59 12.64-.22 7.43-.46 15.12-1.85 22.57a150.486 150.486 0 01-4.31 16.19c-2.151 6.98-4.37 14.2-5.05 21.54a12.461 12.461 0 00.7 6.6c1.72 3.57 6.22 4.98 9.46 5.73a64.608 64.608 0 0014.58 1.64c29.63 0 59.38-19.46 69.409-47.54 2.461-6.89 3.881-14.24 5.261-21.35.88-4.55 1.79-9.26 2.96-13.83 6.73-26.07 22.319-48.71 37.4-70.61 7.07-10.26 14.32-20.78 20.68-31.69z"/><path fill="#4863c9" d="M457.266 464.87c-23.98 54.92-49.07 109.87-74.78 163.75a16.154 16.154 0 01-8.981 8.37 12.911 12.911 0 01-4.449.83 10.378 10.378 0 01-6.24-2.06c-4.021-2.96-6.53-8.95-6.25-14.9a53.475 53.475 0 012.39-11.91 70.7 70.7 0 002.089-8.98c.761-5.49.161-11.17-.429-16.65a88.89 88.89 0 01-.76-13.48c.87-18.98 13.29-34.24 25.3-48.99 5.84-7.18 11.88-14.6 16.56-22.4 2.28-3.77 4.3-7.79 6.26-11.67 1.83-3.62 3.72-7.36 5.81-10.93 5.98-10.17 13.81-19.28 21.39-28.08.54-.62 1.07-1.25 1.61-1.88.44.25.87.51 1.31.78-.591.7-1.19 1.39-1.78 2.08-7.54 8.75-15.33 17.8-21.23 27.86-2.07 3.53-3.95 7.25-5.77 10.84-1.97 3.91-4.01 7.95-6.311 11.78-4.739 7.88-10.809 15.34-16.689 22.56-12.4 15.24-24.11 29.63-24.96 48.12a87.521 87.521 0 00.75 13.25c.6 5.57 1.21 11.34.42 17.01a69.6 69.6 0 01-2.13 9.18 52.289 52.289 0 00-2.33 11.58c-.26 5.47 2 10.94 5.64 13.62a9.525 9.525 0 009.29 1.03 14.879 14.879 0 008.13-7.61c25.84-54.13 51.05-109.35 75.129-164.53C456.606 463.91 456.946 464.39 457.266 464.87zM484.846 542.73c-14.44 12.74-28.78 27.12-38.03 44.48-4.29 8.05-7.58 16.89-10.76 25.44-5.42 14.57-11.03 29.63-21.78 41.14-1.15 1.24-2.4 2.49-3.61 3.7-6.09 6.12-12.4 12.44-11.18 20.89a16.541 16.541 0 005.7 9.94 26.847 26.847 0 008.3 4.85l-3.691.02a26.843 26.843 0 01-5.6-3.74 18.042 18.042 0 01-6.191-10.85c-1.329-9.2 5.241-15.79 11.6-22.16 1.2-1.21 2.439-2.45 3.58-3.67 10.54-11.29 16.09-26.22 21.46-40.65 3.2-8.59 6.5-17.48 10.85-25.62 9.47-17.77 24.14-32.4 38.85-45.34zM197.556 486.1l-.33.36a50.79 50.79 0 00-10.55 17.87c-.18.52-.34 1.04-.51 1.56a23.086 23.086 0 01-3.26 7.2c-2.41 3.13-6.19 4.83-9.24 6.19q-4.77 2.13-9.59 4.21l.4-1.81c2.87-1.24 5.74-2.5 8.58-3.77 3.55-1.59 6.65-3.11 8.66-5.73a22.04 22.04 0 003.02-6.75c.17-.53.34-1.05.519-1.58a52.016 52.016 0 0110.871-18.4l.33-.36c3.589-3.92 8.07-8.8 6.16-13.47a2.88 2.88 0 00-1.321-1.57 4.145 4.145 0 00-2.459.14q-8.58 2.25-17.041 5.08c.481-.7.981-1.4 1.491-2.08q7.53-2.445 15.17-4.45a5.376 5.376 0 013.41-.08 4.229 4.229 0 012.139 2.39C206.276 476.6 201.446 481.87 197.556 486.1z"/><polygon fill="#4863c9" points="242.636 639.657 240.071 638.535 334.694 460.074 337.259 461.196 242.636 639.657"/><path fill="#ed9c9c" d="M302.665,365.829c-.064-.251-1.527-6.187,1.891-9.934,2.267-2.484,6.025-3.325,11.162-2.506l-.414,2.59c-4.206-.673-7.166-.109-8.806,1.676-2.467,2.691-1.305,7.482-1.292,7.529Z"/><path fill="#32477b" d="M441.23,810.3c-11.02-1.53-22.11-3.39-33.2-5.57a562.638,562.638,0,0,1-62.88-16.09c-1.38-.44-2.77-.89-4.14-1.35-.56-.18-1.12-.37-1.68-.56s-1.12-.37-1.67-.56c-37.52-12.65-72.92-29.53-102.84-51.02l2.12-27.03v-.01l1.1-13.91,19.21-.11h.79l77.93-.46h.01l3.35-.02,14.29-.09h1.57l42.3-.25,10.54-.07,5.24-.03h.89l2.47-.01,12.32-.08h.11l3.35,32.2.01.07v.03l.15,1.51v.01Z"/><polygon fill="#1f315f" points="429.054 693.079 236.942 708.112 238.035 694.199 429.054 693.079"/><path fill="#4f25c1" d="M345.15,788.64c-1.38-.44-2.77-.89-4.14-1.35-.56-.18-1.12-.37-1.68-.56V770.95l1.68,5.11Z"/><path fill="#1f315f" d="M341.01,762.31v24.98c-.56-.18-1.12-.37-1.68-.56s-1.12-.37-1.67-.56V762.31Z"/><rect width="3.359" height="33.607" x="335.976" y="693.55" fill="#1f315f"/><path fill="#1f315f" d="M343.214 717.052a11.544 11.544 0 008.287-3.021c6.657-6.34 3.758-20.246 3.632-20.834l-3.284.705c.027.126 2.63 12.661-2.668 17.7-2.34 2.225-6.073 2.675-11.093 1.336l-.866 3.246A23.415 23.415 0 00343.214 717.052zM236.693 731.068a16.325 16.325 0 0012.243-4.969c9.573-9.927 7.2-31.2 7.094-32.1l-3.337.391c.024.205 2.293 20.6-6.179 29.377-2.888 2.994-6.634 4.26-11.437 3.872l-.271 3.348Q235.769 731.069 236.693 731.068zM429.748 727.187a14.656 14.656 0 002.986-.322l-.686-3.288a8.526 8.526 0 01-7.642-1.7c-8.208-6.839-7.781-28.541-7.775-28.76l-3.359-.081c-.023.958-.458 23.555 8.984 31.422A11.4 11.4 0 00429.748 727.187z"/><rect width="2.23" height="13.794" x="371.883" y="392.515" fill="#ed9c9c" transform="rotate(-70.788 372.995 399.41)"/><rect width="2.23" height="13.683" x="371.883" y="403.386" fill="#ed9c9c" transform="rotate(-72.159 372.995 410.226)"/><rect width="2.23" height="11.804" x="370.977" y="415.06" fill="#ed9c9c" transform="rotate(-71.821 372.092 420.962)"/><path fill="#ed9c9c" d="M389.518,386.526,367.68,395.47a21.645,21.645,0,0,0,6.835-.122c2.115-.38,4.431-1.481,8.977-3.668,5.26-2.531,6.733-3.586,6.585-4.452A1.129,1.129,0,0,0,389.518,386.526Z"/><polygon fill="#4863c9" points="432.215 626.406 248.015 626.406 284.355 555.961 447.712 555.961 447.712 558.934 286.168 558.934 252.894 623.433 432.215 623.433 432.215 626.406"/><rect width="2.972" height="71.272" x="425.889" y="486.212" fill="#4863c9" transform="rotate(-2.701 427.348 521.811)"/><line x1="426.103" x2="418.566" y1="494.88" y2="557.444" fill="none"/><path fill="#32477b" d="M594.824 491.907a2.23 2.23 0 01-2.056-1.367l-10.751-25.59a2.23 2.23 0 014.112-1.727l10.75 25.59a2.232 2.232 0 01-2.055 3.094zM616.219 473.59A2.229 2.229 0 01614 471.578l-2.709-27.624a2.23 2.23 0 114.438-.435l2.709 27.624a2.23 2.23 0 01-2 2.437C616.366 473.587 616.292 473.59 616.219 473.59zM642.261 484.624a2.2 2.2 0 01-.559-.072 2.229 2.229 0 01-1.6-2.716l6.938-26.875a2.229 2.229 0 114.317 1.114l-6.938 26.876A2.231 2.231 0 01642.261 484.624zM698.609 495.765a2.232 2.232 0 01-1.972-3.267l12.9-24.578a2.229 2.229 0 113.948 2.072l-12.9 24.579A2.232 2.232 0 01698.609 495.765zM684.17 444.69a16.847 16.847 0 00-11.26.04 3.2 3.2 0 00-1.78 4.53l.03.06a3.253 3.253 0 003.88 1.52 9.049 9.049 0 015.86 0c3.56 1.27 4.84 4.24 3.68 7.51-1.87 5.28-10.69 6.23-14.66 12.8a3.723 3.723 0 00-.54 1.94 3.777 3.777 0 002.52 3.57 3.714 3.714 0 004.48-1.59c3.68-6.42 13.32-6.76 16.09-14.55C695.13 453.03 691.39 447.25 684.17 444.69zm-14.06 36.88a5.725 5.725 0 103.22 7.24A5.479 5.479 0 00670.11 481.57z"/></svg>