<svg xmlns="http://www.w3.org/2000/svg" enable-background="new 0 0 600 500" viewBox="0 0 600 500"><path fill="#d2e4ff" d="M87.9 424.5H526c17.9 0 30.3-18.3 23.3-34.8 0-.1-.1-.2-.1-.3-7.2-17-17.9-33.4-18.2-51.9-.4-20.1 11.5-38 19.1-56.5 7.6-18.6 9.7-43-5.8-55.8-17-13.9-8.1-142.2-136.6-159.6-19-2.6-38.1.9-54.7 10.5-16.6 9.5-32.6 21.5-51.5 24.8-25.8 4.5-76.5-27.8-102.2-33.2-41.2-8.7-85.7 4.1-116.2 32.9C38.5 142.8 51 276.5 46.6 315.4c-3 26.4-4.4 54.2 6.8 78.4 4.1 9 10 17.1 17.1 23.9 4.7 4.3 11 6.8 17.4 6.8z" opacity=".3"/><path fill="#c6e2fa" d="M410 77.8h-34c-.2 0-.4-.2-.4-.4s.2-.4.4-.4h34c.2 0 .4.2.4.4s-.2.4-.4.4zM410 94.7h-34c-.2 0-.4-.2-.4-.4s.2-.4.4-.4h34c.2 0 .4.2.4.4s-.2.4-.4.4zM403.8 86.2h-48.2c-.2 0-.4-.2-.4-.4s.2-.4.4-.4h48.2c.2 0 .4.2.4.4s-.1.4-.4.4z"/><path fill="#c6e2fa" d="M383 77.8c-.2 0-.4-.2-.4-.4v-7.2c0-.2.2-.4.4-.4s.4.2.4.4v7.2c-.1.2-.2.4-.4.4zM395 86.2c-.2 0-.4-.2-.4-.4v-8.4c0-.2.2-.4.4-.4s.4.2.4.4v8.4c-.1.3-.2.4-.4.4zM385.8 94.4c-.2 0-.4-.2-.4-.4v-8.2c0-.2.2-.4.4-.4s.4.2.4.4V94c0 .2-.2.4-.4.4z"/><path d="m209.1 340.4-4.7-1.6.3-.9 4.7 1.6-.3.9zm-9.4-3.3c-1.6-.6-3.1-1.1-4.7-1.7l.3-.9c1.6.6 3.1 1.1 4.7 1.7l-.3.9zm-9.5-3.3c-1.6-.6-3.1-1.2-4.7-1.8l.4-.9c1.6.6 3.1 1.2 4.7 1.7l-.4 1zm-9.3-3.6c-1.6-.6-3.1-1.2-4.6-1.9l.4-.9c1.5.6 3.1 1.2 4.6 1.9l-.4.9zm-9.3-3.8c-1.5-.7-3.1-1.3-4.6-2l.4-.9c1.5.7 3 1.3 4.6 2l-.4.9zm-9.1-4.1c-1.5-.7-3-1.4-4.5-2.2l.4-.9c1.5.7 3 1.5 4.5 2.2l-.4.9zm-9-4.5c-1.5-.8-3-1.6-4.4-2.4l.5-.9c1.4.8 2.9 1.6 4.4 2.4l-.5.9zm-8.7-5c-1.4-.9-2.9-1.8-4.2-2.7l.5-.8 4.2 2.7-.5.8zm-8.4-5.5c-1.4-1-2.7-2-4-3l.6-.8c1.3 1 2.6 2 4 3l-.6.8zm-8-6.1c-1.3-1.1-2.6-2.2-3.8-3.3l.7-.7c1.2 1.1 2.5 2.2 3.8 3.3l-.7.7zm-7.4-6.7c-1.2-1.2-2.4-2.4-3.5-3.6l.7-.7c1.1 1.2 2.3 2.4 3.5 3.6l-.7.7zm-6.8-7.4c-1.1-1.3-2.1-2.6-3.1-3.9l.8-.6c1 1.3 2 2.6 3.1 3.9l-.8.6zm-6.1-8c-.9-1.4-1.9-2.8-2.8-4.2l.8-.5 2.7 4.2-.7.5zm-5.3-8.5c-.8-1.5-1.6-2.9-2.4-4.4l.9-.4c.7 1.5 1.5 3 2.3 4.4l-.8.4zm-4.5-9c-.7-1.5-1.3-3.1-1.9-4.6l.9-.4c.6 1.5 1.3 3.1 1.9 4.6l-.9.4zm-3.6-9.4-1.5-4.8 1-.3c.5 1.6 1 3.2 1.5 4.7l-1 .4zm-2.8-9.6c-.4-1.6-.7-3.3-1.1-4.9l1-.2c.3 1.6.7 3.2 1 4.9l-.9.2zm-1.9-9.9c-.2-1.7-.4-3.3-.6-5l1-.1c.2 1.6.3 3.3.6 4.9l-1 .2zm-.9-10c-.1-1.5-.1-3.1-.1-4.6v-.5h1v.4c0 1.5 0 3 .1 4.5l-1 .2zm1-10-1-.1c.1-1.5.2-3.1.4-4.6v-.4l1 .1v.4c-.2 1.6-.3 3.1-.4 4.6zm1-9.9-1-.2c.3-1.6.6-3.3.9-4.9l1 .2c-.3 1.7-.6 3.3-.9 4.9zm2.1-9.7-1-.3c.4-1.6.9-3.2 1.4-4.8l1 .3c-.6 1.6-1 3.2-1.4 4.8zm2.9-9.5-.9-.3c.6-1.6 1.2-3.1 1.8-4.7l.9.4c-.6 1.5-1.2 3.1-1.8 4.6zm3.8-9.2-.9-.4c.7-1.5 1.5-3 2.2-4.5l.9.5c-.7 1.4-1.5 2.9-2.2 4.4zm4.7-8.8-.9-.5c.8-1.4 1.7-2.9 2.6-4.3l.8.5c-.8 1.5-1.7 2.9-2.5 4.3zm5.4-8.3-.8-.6c1-1.4 2-2.7 3-4l.8.6c-1 1.3-2 2.7-3 4zm6.2-7.8-.8-.7c1.1-1.3 2.2-2.5 3.4-3.7l.7.7c-1.1 1.2-2.2 2.4-3.3 3.7zm6.8-7.3-.7-.7c1.2-1.2 2.4-2.3 3.7-3.4l.7.7c-1.3 1.2-2.5 2.3-3.7 3.4zm7.5-6.5-.6-.8c1.3-1 2.6-2.1 4-3.1l.6.8c-1.4 1-2.7 2-4 3.1zm8-5.9-.6-.8c.3-.2.7-.4 1-.7 1.1-.7 2.1-1.4 3.2-2l.5.9c-1.1.6-2.1 1.3-3.2 2-.2.1-.6.4-.9.6zm8.5-5.2-.5-.9c1.5-.8 3-1.6 4.5-2.3l.4.9c-1.4.8-2.9 1.6-4.4 2.3zm9-4.4-.4-.9c1.5-.7 3.1-1.3 4.6-2l.4.9c-1.6.7-3.2 1.4-4.6 2zm231.1-1.7h-3.8v-1h5v1H387.1zm6.3 0v-1c1.7 0 3.3-.1 5-.1v1c-1.7 0-3.3 0-5 .1zm-15-.1c-1.7 0-3.3-.1-5-.1v-1c1.7 0 3.3.1 5 .1v1zm25-.2v-1c1.7-.1 3.3-.1 5-.2v1c-1.7.1-3.3.2-5 .2zm-35 0c-1.7-.1-3.3-.1-5-.2v-1c1.7.1 3.3.1 5 .2v1zm45-.4-.1-1c1.7-.1 3.3-.2 5-.3l.1 1c-1.7.1-3.3.2-5 .3zm-55-.1c-1.7-.1-3.3-.2-5-.3l.1-1c1.7.1 3.3.2 5 .3l-.1 1zm-10-.6c-1.7-.1-3.3-.2-5-.4l.1-1c1.7.1 3.3.2 5 .4l-.1 1zm75 0-.1-1c1.7-.1 3.3-.3 5-.4l.1 1c-1.7.1-3.4.2-5 .4zm-258.2-.6-.3-.9c1.6-.6 3.2-1.1 4.8-1.6l.3 1c-1.7.5-3.3 1-4.8 1.5zm173.2-.1c-1.7-.1-3.3-.3-5-.4l.1-1c1.7.1 3.3.3 5 .4l-.1 1zm95-.3-.1-1c1.7-.2 3.3-.4 5-.6l.1 1c-1.7.2-3.4.4-5 .6zm-105-.6c-1.7-.2-3.3-.3-5-.5l.1-1c1.7.2 3.3.3 5 .5l-.1 1zm114.9-.6-.1-1c1.6-.2 3.3-.5 4.9-.7l.2 1c-1.7.2-3.4.5-5 .7zm-124.8-.4-5-.5.1-1 5 .5-.1 1zm-143.8-1-.3-1c1.6-.5 3.2-.9 4.8-1.3l.2 1c-1.5.4-3.1.9-4.7 1.3zm278.5-.1-.2-1c1.7-.3 3.3-.6 4.9-.9l.2 1c-1.6.3-3.2.6-4.9.9zm-144.7 0c-1.7-.2-3.3-.4-5-.6l.1-1c1.7.2 3.3.4 5 .6l-.1 1zm-9.9-1.2-5-.6.1-1 5 .6-.1 1zm164.4-.8-.2-1c1.6-.4 3.3-.8 4.8-1.2l.3 1c-1.6.4-3.2.8-4.9 1.2zm-278.6-.3-.2-1c1.6-.4 3.3-.7 4.9-1l.2 1c-1.7.3-3.3.6-4.9 1zm104.3-.1c-1.7-.2-3.3-.4-5-.6l.1-1c1.7.2 3.3.4 5 .6l-.1 1zm-10-1.1c-1.7-.2-3.3-.4-5-.5l.1-1c1.7.2 3.3.4 5 .5l-.1 1zm-84.6-.7-.2-1c1.6-.3 3.3-.5 5-.7l.1 1c-1.6.2-3.2.5-4.9.7zm278.6-.4-.3-1c1.6-.5 3.2-1 4.7-1.6l.3.9c-1.5.7-3.1 1.2-4.7 1.7zm-203.9 0c-1.7-.2-3.3-.3-5-.5l.1-1c1.7.2 3.3.3 5 .5l-.1 1zm-64.8-.9-.1-1c1.7-.2 3.3-.3 5-.5l.1 1c-1.7.2-3.3.3-5 .5zm54.9 0c-1.7-.1-3.3-.3-5-.4l.1-1c1.7.1 3.3.2 5 .4l-.1 1zm-10-.7c-1.7-.1-3.3-.2-5-.3v-1c1.7.1 3.3.2 5 .3v1zM214 107l-.1-1c1.7-.1 3.3-.2 5-.3v1c-1.6.2-3.3.2-4.9.3zm24.9-.3c-1.7-.1-3.3-.1-5-.1v-1c1.7 0 3.3.1 5 .1v1zm-15-.1v-1h5v1h-5zm258.3-1.2-.4-.9c1.6-.6 3.1-1.3 4.5-2l.4.9c-1.4.7-2.9 1.4-4.5 2zm9-4.3-.5-.9c1.5-.8 2.9-1.7 4.2-2.6l.6.8c-1.3.9-2.8 1.8-4.3 2.7zm8.4-5.6-.6-.8c.6-.5 1.3-1 1.9-1.5l.7.8c-.7.5-1.3 1-2 1.5z"/><path fill="#6193f6" d="M237.5 314.6v99.8c0 5.5-4.5 10-10 10H53.9c-5.5 0-9.9-4.5-9.9-10v-99.8c0-5.5 4.5-10 9.9-10h173.6c5.5 0 10 4.5 10 10z"/><path fill="#fff" d="M62.6 360.5c0 2.8 2.2 5 5 5h5.3v-5.6H62.6v.6zM62.6 352.4h10.3v5.7H62.6zM62.6 342.6v.6h10.3v-5.6h-5.3c-2.7 0-5 2.2-5 5zM88.7 337.6h-14v28h7.1v-22.4h11.9v-.6c0-2.8-2.3-5-5-5zM62.6 344.9h10.3v5.7H62.6z"/><path fill="#fff" d="M83.6 344.9h10.1v5.7H83.6zM83.6 352.4h10.1v5.7H83.6zM83.6 365.5h5.1c2.8 0 5-2.2 5-5v-.6H83.6v5.6zM57.1 346.9l-4.6 4.6 4.6 4.7zM64.4 380.5c-.5-.6-.8-1.4-.9-2.3V376c0-.9.3-1.7.9-2.3.5-.6 1.3-.9 2.4-.9 1.1 0 1.8.3 2.4.9.5.6.8 1.4.9 2.3v2.2c0 1-.3 1.7-.9 2.3-.5.6-1.3.9-2.4.9-1.1 0-1.8-.3-2.4-.9zm3.5-1c.2-.3.4-.8.4-1.4V376c0-.6-.1-1-.4-1.4-.2-.3-.6-.5-1.1-.5-.5 0-.9.2-1.1.5-.2.3-.4.8-.4 1.4v2.1c0 .6.1 1.1.4 1.4.2.3.6.5 1.1.5s.9-.1 1.1-.5zM74.2 381.2c-.1-.1-.1-.1-.1-.2v-6.2l-1.8 1.4s-.1.1-.2.1-.2 0-.2-.1l-.5-.7c0-.1-.1-.1-.1-.2s0-.2.1-.2l2.7-2.1c.1-.1.2-.1.3-.1h1.1c.1 0 .1 0 .2.1s.1.1.1.2v7.8c0 .1 0 .1-.1.2s-.1.1-.2.1h-1.1c-.1 0-.1 0-.2-.1zM78.5 380.5c-.5-.6-.8-1.4-.9-2.3V376c0-.9.3-1.7.9-2.3.5-.6 1.3-.9 2.4-.9 1.1 0 1.8.3 2.4.9.5.6.8 1.4.9 2.3v2.2c0 1-.3 1.7-.9 2.3-.5.6-1.3.9-2.4.9-1.1 0-1.9-.3-2.4-.9zm3.5-1c.2-.3.4-.8.4-1.4V376c0-.6-.1-1-.4-1.4-.2-.3-.6-.5-1.1-.5-.5 0-.9.2-1.1.5-.2.3-.4.8-.4 1.4v2.1c0 .6.1 1.1.4 1.4.2.3.6.5 1.1.5.5 0 .9-.1 1.1-.5zM88.3 381.2c-.1-.1-.1-.1-.1-.2v-6.2l-1.8 1.4s-.1.1-.2.1-.2 0-.2-.1l-.5-.7c0-.1-.1-.1-.1-.2s0-.2.1-.2l2.7-2.1c.1-.1.2-.1.3-.1h1.1c.1 0 .1 0 .2.1s.1.1.1.2v7.8c0 .1 0 .1-.1.2s-.1.1-.2.1h-1.1c-.1 0-.2 0-.2-.1zM106.2 380.5c-.5-.6-.8-1.4-.9-2.3V376c0-.9.3-1.7.9-2.3.5-.6 1.3-.9 2.4-.9 1.1 0 1.8.3 2.4.9.5.6.8 1.4.9 2.3v2.2c0 1-.3 1.7-.9 2.3-.5.6-1.3.9-2.4.9-1 0-1.8-.3-2.4-.9zm3.5-1c.2-.3.4-.8.4-1.4V376c0-.6-.1-1-.4-1.4-.2-.3-.6-.5-1.1-.5-.5 0-.9.2-1.1.5-.2.3-.4.8-.4 1.4v2.1c0 .6.1 1.1.4 1.4.2.3.6.5 1.1.5s.9-.1 1.1-.5zM116 381.2c-.1-.1-.1-.1-.1-.2v-6.2l-1.8 1.4s-.1.1-.2.1-.2 0-.2-.1l-.5-.7c0-.1-.1-.1-.1-.2s0-.2.1-.2l2.7-2.1c.1-.1.2-.1.3-.1h1.1c.1 0 .1 0 .2.1s.1.1.1.2v7.8c0 .1 0 .1-.1.2s-.1.1-.2.1h-1.1c-.1 0-.1 0-.2-.1zM120.3 380.5c-.5-.6-.8-1.4-.9-2.3V376c0-.9.3-1.7.9-2.3.5-.6 1.3-.9 2.4-.9 1.1 0 1.8.3 2.4.9.5.6.8 1.4.9 2.3v2.2c0 1-.3 1.7-.9 2.3-.5.6-1.3.9-2.4.9-1 0-1.8-.3-2.4-.9zm3.5-1c.2-.3.4-.8.4-1.4V376c0-.6-.1-1-.4-1.4-.2-.3-.6-.5-1.1-.5-.5 0-.9.2-1.1.5-.2.3-.4.8-.4 1.4v2.1c0 .6.1 1.1.4 1.4.2.3.6.5 1.1.5.5 0 .9-.1 1.1-.5zM130.1 381.2c-.1-.1-.1-.1-.1-.2v-6.2l-1.8 1.4s-.1.1-.2.1-.2 0-.2-.1l-.5-.7c0-.1-.1-.1-.1-.2s0-.2.1-.2l2.7-2.1c.1-.1.2-.1.3-.1h1.1c.1 0 .1 0 .2.1s.1.1.1.2v7.8c0 .1 0 .1-.1.2s-.1.1-.2.1h-1.1c-.1 0-.1 0-.2-.1zM148.1 380.5c-.5-.6-.8-1.4-.9-2.3V376c0-.9.3-1.7.9-2.3.5-.6 1.3-.9 2.4-.9 1.1 0 1.8.3 2.4.9.5.6.8 1.4.9 2.3v2.2c0 1-.3 1.7-.9 2.3-.5.6-1.3.9-2.4.9s-1.9-.3-2.4-.9zm3.5-1c.2-.3.4-.8.4-1.4V376c0-.6-.1-1-.4-1.4-.2-.3-.6-.5-1.1-.5-.5 0-.9.2-1.1.5-.2.3-.4.8-.4 1.4v2.1c0 .6.1 1.1.4 1.4.2.3.6.5 1.1.5s.8-.1 1.1-.5zM157.8 381.2c-.1-.1-.1-.1-.1-.2v-6.2l-1.8 1.4s-.1.1-.2.1-.2 0-.2-.1l-.5-.7c0-.1-.1-.1-.1-.2s0-.2.1-.2l2.7-2.1c.1-.1.2-.1.3-.1h1.1c.1 0 .1 0 .2.1s.1.1.1.2v7.8c0 .1 0 .1-.1.2s-.1.1-.2.1H158s-.1 0-.2-.1zM162.2 380.5c-.5-.6-.8-1.4-.9-2.3V376c0-.9.3-1.7.9-2.3.5-.6 1.3-.9 2.4-.9 1.1 0 1.8.3 2.4.9.5.6.8 1.4.9 2.3v2.2c0 1-.3 1.7-.9 2.3-.5.6-1.3.9-2.4.9s-1.9-.3-2.4-.9zm3.4-1c.2-.3.4-.8.4-1.4V376c0-.6-.1-1-.4-1.4-.2-.3-.6-.5-1.1-.5-.5 0-.9.2-1.1.5-.2.3-.4.8-.4 1.4v2.1c0 .6.1 1.1.4 1.4.2.3.6.5 1.1.5.5 0 .9-.1 1.1-.5zM171.9 381.2c-.1-.1-.1-.1-.1-.2v-6.2l-1.8 1.4s-.1.1-.2.1-.2 0-.2-.1l-.5-.7c0-.1-.1-.1-.1-.2s0-.2.1-.2l2.7-2.1c.1-.1.2-.1.3-.1h1.1c.1 0 .1 0 .2.1s.1.1.1.2v7.8c0 .1 0 .1-.1.2s-.1.1-.2.1h-1.1c-.1 0-.1 0-.2-.1zM189.9 380.5c-.5-.6-.8-1.4-.9-2.3V376c0-.9.3-1.7.9-2.3.5-.6 1.3-.9 2.4-.9 1.1 0 1.8.3 2.4.9.5.6.8 1.4.9 2.3v2.2c0 1-.3 1.7-.9 2.3-.5.6-1.3.9-2.4.9s-1.9-.3-2.4-.9zm3.5-1c.2-.3.4-.8.4-1.4V376c0-.6-.1-1-.4-1.4-.2-.3-.6-.5-1.1-.5-.5 0-.9.2-1.1.5-.2.3-.4.8-.4 1.4v2.1c0 .6.1 1.1.4 1.4.2.3.6.5 1.1.5s.8-.1 1.1-.5zM199.6 381.2c-.1-.1-.1-.1-.1-.2v-6.2l-1.8 1.4s-.1.1-.2.1-.2 0-.2-.1l-.5-.7c0-.1-.1-.1-.1-.2s0-.2.1-.2l2.7-2.1c.1-.1.2-.1.3-.1h1.1c.1 0 .1 0 .2.1s.1.1.1.2v7.8c0 .1 0 .1-.1.2s-.1.1-.2.1h-1.1s-.1 0-.2-.1zM204 380.5c-.5-.6-.8-1.4-.9-2.3V376c0-.9.3-1.7.9-2.3.5-.6 1.3-.9 2.4-.9 1.1 0 1.8.3 2.4.9.5.6.8 1.4.9 2.3v2.2c0 1-.3 1.7-.9 2.3-.5.6-1.3.9-2.4.9s-1.9-.3-2.4-.9zm3.5-1c.2-.3.4-.8.4-1.4V376c0-.6-.1-1-.4-1.4-.2-.3-.6-.5-1.1-.5-.5 0-.9.2-1.1.5-.2.3-.4.8-.4 1.4v2.1c0 .6.1 1.1.4 1.4.2.3.6.5 1.1.5.4 0 .8-.1 1.1-.5zM213.7 381.2c-.1-.1-.1-.1-.1-.2v-6.2l-1.8 1.4s-.1.1-.2.1-.2 0-.2-.1l-.5-.7c0-.1-.1-.1-.1-.2s0-.2.1-.2l2.7-2.1c.1-.1.2-.1.3-.1h1.1c.1 0 .1 0 .2.1s.1.1.1.2v7.8c0 .1 0 .1-.1.2s-.1.1-.2.1h-1.1s-.1 0-.2-.1zM184 320.1c.5-.1 1.6-.2 2.5-.2 1.2 0 1.9.1 2.6.5.6.3 1 .9 1 1.6 0 .7-.5 1.4-1.4 1.7 1 .3 1.7 1 1.7 2 0 .7-.4 1.3-.9 1.7-.6.5-1.7.7-3.4.7-1 0-1.7-.1-2.1-.1v-7.9zm2 3.1h.6c1 0 1.6-.4 1.6-1s-.5-.9-1.4-.9h-.8v1.9zm0 3.6h.8c.9 0 1.7-.3 1.7-1.2 0-.8-.8-1.1-1.8-1.1h-.7v2.3zM193.8 326l-.6 2.1h-2l2.7-8.2h2.6l2.7 8.2h-2.1l-.7-2.1h-2.6zm2.2-1.3-.5-1.7c-.2-.5-.3-1.1-.4-1.6-.1.5-.3 1.1-.4 1.6l-.5 1.7h1.8zM200.2 328.1V320h2.3l1.8 3c.5.9 1 1.9 1.4 2.8-.1-1.1-.2-2.2-.2-3.4V320h1.8v8.2h-2.1l-1.9-3.1c-.5-.9-1.1-1.9-1.5-2.9.1 1.1.1 2.2.1 3.6v2.5h-1.7zM209.1 320h1.9v3.6l.6-.9 2-2.7h2.4l-2.9 3.5 3 4.7h-2.3l-2.1-3.5-.7.9v2.7h-1.9V320zM224.9 407.6v2.6c0 .4-.3.8-.8.8h-20.7c-.4 0-.8-.3-.8-.8v-2.6c0-.4.4-.8.8-.8h20.7c.4 0 .8.3.8.8zM224.9 399.1v2.6c0 .4-.3.8-.8.8h-33.8c-.4 0-.8-.3-.8-.8v-2.6c0-.4.3-.8.8-.8h33.8c.4 0 .8.4.8.8z"/><path d="M237.5 314.6v99.8c0 5.5-4.5 10-10 10h-36.3c-8.3 0-15-6.7-15-15V304.6h51.3c5.5 0 10 4.5 10 10z" opacity=".1"/><path fill="#060405" d="M378.2 103.4v306.1c0 8.3-6.8 15-15 15H197.9c-8.3 0-15-6.7-15-15V103.4c0-8.2 6.7-15 15-15h165.3c8.2 0 15 6.8 15 15z"/><path fill="#fff" d="M372 121.7v287.8c0 4.8-3.9 8.7-8.7 8.7H197.9c-4.9 0-8.8-3.8-8.8-8.7V121.7c0-4.8 3.9-8.7 8.8-8.7h165.3c4.7 0 8.8 4 8.8 8.7z"/><path d="M378.2 149.5v245.3h-140c-4.5 0-8.1-3.6-8.1-8.1V252.8l-31.5.1c5.7 0 10.2-4.6 10.2-10.3l-.6-83.4c0-5.3 4.3-9.6 9.6-9.7h160.4z" opacity=".05"/><circle cx="260.1" cy="102.2" r="4.1" fill="#fff"/><path fill="#fff" d="M305.1 102.2c0 1.6-1.3 2.8-2.8 2.8h-31.6c-1.6 0-2.8-1.3-2.8-2.8 0-1.6 1.3-2.8 2.8-2.8h31.6c1.5-.1 2.8 1.2 2.8 2.8z"/><path d="m205.6 246.3 190.4-.6c3.4 0 6.1-2.8 6.1-6.1l-.7-91c0-3.4-2.8-5.6-6.1-5.6H224.8c-5.3 0-9.6 4.4-9.6 9.7l.7 83.4c0 5.6-4.6 10.2-10.3 10.2z"/><path fill="#060405" d="M205.6 246.8v-1c2.6 0 5.1-1 6.9-2.9s2.8-4.3 2.8-6.9l-.7-83.4c0-5.6 4.5-10.2 10.1-10.2h170.5c3.9 0 6.6 2.6 6.6 6.1l.7 91c0 1.8-.7 3.4-1.9 4.7-1.2 1.3-2.9 1.9-4.7 1.9l-190.3.7zm19.2-103.3c-5 0-9.1 4.1-9.1 9.2l.7 83.4c0 4.3-2.5 8.1-6.2 9.8l185.9-.6c1.5 0 2.9-.6 4-1.7s1.6-2.5 1.6-4l-.7-91c0-2.9-2.4-5.1-5.6-5.1H224.8z"/><path fill="#fff" d="M423.4 151v229.1c0 4.5-3.6 8.1-8.1 8.1H245.2c-4.5 0-8.1-3.6-8.1-8.1V153.2c0-5.7-4.6-10.3-10.2-10.3h188.5c4.4 0 8 3.7 8 8.1z"/><path fill="#060405" d="M415.3 388.8H245.2c-4.7 0-8.6-3.9-8.6-8.6v-227c0-5.4-4.4-9.8-9.7-9.8v-1h188.5c4.7 0 8.6 3.9 8.6 8.6v229.1c-.1 4.8-3.9 8.7-8.7 8.7zM231.4 143.4c3.7 1.7 6.2 5.4 6.2 9.8v226.9c0 4.2 3.4 7.6 7.6 7.6h170.1c4.2 0 7.6-3.4 7.6-7.6V151c0-4.2-3.4-7.6-7.6-7.6H231.4z"/><path fill="#6193f6" d="M266.4 158.7h127.9v19.2H266.4z"/><path fill="#d2e4ff" d="M272.2 186h118.6v2.7H272.2zM272.2 194.3h80.2v2.7h-80.2zM361.2 194.3h29.6v2.7h-29.6zM272.2 202.7h28.5v2.7h-28.5zM310.7 202.7h48.7v2.7h-48.7z"/><path fill="#060405" d="M282.7 219v20.2c0 2-1.6 3.7-3.7 3.7h-20.2c-2 0-3.7-1.7-3.7-3.7V219c0-2 1.7-3.7 3.7-3.7H279c2 0 3.7 1.7 3.7 3.7z"/><path fill="#fff" d="m265.2 235.4-3.5-3.5c-.6-.6-.6-1.5 0-2.1.6-.6 1.5-.6 2.1 0l2.5 2.5 9.5-9.5c.6-.6 1.5-.6 2.1 0 .6.6.6 1.5 0 2.1l-10.5 10.5c-.7.6-1.6.6-2.2 0z"/><path fill="#d2e4ff" d="M295.7 222h108.1v4.8H295.7zM295.7 231.5h33.1v4.8h-33.1zM335.1 231.5h19.5v4.8h-19.5zM359.3 231.5h13.4v4.8h-13.4z"/><path fill="#060405" d="M282.7 254.9v20.2c0 2-1.6 3.7-3.7 3.7h-20.2c-2 0-3.7-1.7-3.7-3.7v-20.2c0-2 1.7-3.7 3.7-3.7H279c2 0 3.7 1.7 3.7 3.7z"/><path fill="#fff" d="m265.2 271.3-3.5-3.5c-.6-.6-.6-1.5 0-2.1s1.5-.6 2.1 0l2.5 2.5 9.5-9.5c.6-.6 1.5-.6 2.1 0 .6.6.6 1.5 0 2.1l-10.5 10.5c-.7.6-1.6.6-2.2 0z"/><path fill="#d2e4ff" d="M295.7 257.9h108.1v4.8H295.7zM295.7 267.3h28.2v4.8h-28.2zM331.8 267.3h16v4.8h-16z"/><path fill="#bdd6ff" d="M405.3 371.5H255.4c-2.2 0-3.9-1.8-3.9-3.9v-71c0-2.2 1.8-3.9 3.9-3.9h149.9c2.2 0 3.9 1.8 3.9 3.9v71c0 2.2-1.7 3.9-3.9 3.9zm-149.9-76.8c-1.1 0-1.9.9-1.9 1.9v71c0 1.1.9 1.9 1.9 1.9h149.9c1.1 0 1.9-.9 1.9-1.9v-71c0-1.1-.9-1.9-1.9-1.9H255.4z"/><path fill="#bdd6ff" d="M408.2 307.5v-10.8c0-1.6-1.3-2.9-2.9-2.9H255.4c-1.6 0-2.9 1.3-2.9 2.9v10.8h155.7zM259.9 316.3h94.5v3.7h-94.5zM259.9 326.3h94.5v3.7h-94.5zM259.9 336.3h94.5v3.7h-94.5zM259.9 346.3h94.5v3.7h-94.5zM259.9 356.3h94.5v3.7h-94.5z"/><path fill="#bdd6ff" d="M365.5 316.3h35.2v3.7h-35.2z" transform="rotate(-180 383.154 318.15)"/><path fill="#bdd6ff" d="M365.5 326.3h35.2v3.7h-35.2z" transform="rotate(-180 383.154 328.156)"/><path fill="#bdd6ff" d="M365.5 336.3h35.2v3.7h-35.2z" transform="rotate(-180 383.154 338.163)"/><path fill="#bdd6ff" d="M365.5 346.3h35.2v3.7h-35.2z" transform="rotate(-180 383.154 348.168)"/><path fill="#bdd6ff" d="M365.5 356.3h35.2v3.7h-35.2z" transform="rotate(-180 383.154 358.174)"/><path fill="#fff" d="M389.8 223.1s-3 .1-3.6 5.2c-.7 6.7 7.5 5.2 7.5 5.2s48.9 43.3 63 35.3c7.2-4.1 2.5-33 2.5-33l-12.7-10.1-6.1 17-42.4-20.6s.5-7.3-2.2-7.1c-2.6.2-1.4 5-1.3 5.3-.5-.4-11.6-9.3-13.6-7.3-2.2 2.2 8.9 10.1 8.9 10.1z"/><path fill="#060405" d="M452.6 270.3c-17.4 0-55.6-33.3-59-36.3-1 .1-4.5.5-6.5-1.4-1.1-1-1.5-2.5-1.3-4.4.4-3.5 1.9-4.8 3-5.3-2.3-1.7-8.4-6.5-8.7-9 0-.5.1-.9.4-1.2 1.9-1.9 8.7 2.8 13.2 6.4-.2-1.3-.2-2.8.5-3.7.4-.5.9-.8 1.6-.9.5-.1 1 .1 1.4.5 1.5 1.4 1.4 5.5 1.3 6.8l41.7 20.3 6-16.5c.1-.2.2-.3.3-.3.2 0 .3 0 .4.1l12.7 10.1c.1.1.2.2.2.3.2 1.2 4.6 29.3-2.8 33.5-1.2.7-2.7 1-4.4 1zM393.7 233c.1 0 .2 0 .3.1.5.4 48.8 42.9 62.5 35.3 6.5-3.7 2.7-29.8 2.3-32.3l-12-9.5-5.9 16.4c0 .1-.2.2-.3.3-.1.1-.3 0-.4 0l-42.5-20.7c-.2-.1-.3-.3-.3-.5.1-1.4.1-5.2-1-6.3-.2-.2-.4-.3-.7-.2-.4 0-.6.2-.8.4-.6.8-.4 2.7-.1 4.2 0 .2 0 .4-.2.6-.2.1-.4.1-.6 0-6.4-5.2-12-8.3-13-7.3-.1.1-.1.2-.1.4.2 1.9 5.6 6.4 9.1 8.9.2.1.3.3.2.5-.1.2-.2.3-.5.4-.1 0-2.6.2-3.1 4.7-.2 1.6.2 2.8 1 3.6 2.1 1.7 6 1 6.1 1z"/><path fill="#6193f6" d="M447 423.5v-3.3h19.6c.3 6.4.8 18.4.9 18.4h-31.9c-1.1-10.6 11.4-15.1 11.4-15.1z"/><path fill="#060405" d="M436.1 434c-.4 1.4-.6 2.9-.4 4.6h31.9c-.1 0-.2-1.9-.3-4.6h-31.2z"/><path fill="#6193f6" d="M518.2 423.5v-3.3h19.6c.3 6.4.8 18.4.9 18.4h-31.9c-1.1-10.6 11.4-15.1 11.4-15.1z"/><path fill="#060405" d="M507.2 434c-.4 1.4-.6 2.9-.4 4.6h31.9c-.1 0-.2-1.9-.3-4.6h-31.2zM538.7 423.5c0 1.5-23 1.5-23 0l-28.6-94-19.3 92.8c0 1.6-23 1.6-23 0l9.4-136.2h63.9l20.6 137.4z"/><path fill="#ff7545" d="M467.6 196.1s-15.4 3.8-20.8 17.9c-1.5 3.8-6.1 22.5-6.1 22.5 3.9 5.1 15.7 6.2 27.8 7.1l-.9-47.5z"/><path fill="#ff7545" d="M520.8 198.3c-4.3-7.3-53.1-8.6-61.5 3-8.6 11.9-6.8 91.2-6.8 91.2-.6 8.1 70.7 8.4 71.3.4 0 0 1.5-87.1-3-94.6z"/><path fill="#fff" d="M494.1 294.5h-17c-.5 0-.9-.3-1.1-.7l-12.5-25.6c-.4-.8.2-1.8 1.1-1.8h17c.5 0 .9.3 1.1.7l12.5 25.6c.4.9-.2 1.8-1.1 1.8z"/><path fill="#060405" d="M494.1 295h-17c-.7 0-1.3-.4-1.6-1L463 268.4c-.6-1.2.3-2.5 1.6-2.5h17c.7 0 1.3.4 1.6 1l12.5 25.6c.5 1.2-.3 2.5-1.6 2.5zm-29.5-28.1c-.6 0-.9.6-.7 1.1l12.5 25.6c.1.3.4.4.7.4h17c.6 0 .9-.6.7-1.1l-12.5-25.6c-.1-.3-.4-.4-.7-.4h-17z"/><path fill="#fff" d="M545.4 249.9c-.6 9.6-46.4 31.1-46.4 31.1s-10.5 15.4-19.3 7.9 8-11.6 8-11.6l-2.3-4.7c.1-2.7 7 1 7 1l29.2-25.8-6.8-11.7 22.8-10.4c0 .1 8.2 18.2 7.8 24.2z"/><path fill="#060405" d="M479.4 289.3c-2.2-1.8-3-3.7-2.6-5.5.9-3.9 8.1-6.2 10.2-6.8l-2-4.1c0-.1-.1-.2-.1-.2 0-.7.4-1.1.7-1.2 1.6-.9 5.4 1 6.8 1.6l28.6-25.3-6.6-11.4c-.1-.1-.1-.3 0-.4s.1-.2.3-.3l22.8-10.4c.1-.1.3-.1.4 0s.2.1.3.3c.3.7 8.2 18.3 7.9 24.3-.6 9.7-43.4 30-46.6 31.5-.8 1.1-6.6 9.1-13.2 10-2.7.3-5-.5-6.9-2.1zm6.6-16.7 2.2 4.6c.1.1.1.3 0 .4l-.3.3c-.1 0-9.1 2.3-10.1 6.2-.3 1.4.4 2.9 2.3 4.5 1.8 1.5 3.8 2.1 6 1.9 6.5-.9 12.5-9.6 12.6-9.7l.2-.2c.5-.2 45.5-21.5 46.1-30.7.3-5.3-6.3-20.6-7.6-23.4l-21.8 10 6.5 11.3c.1.2.1.5-.1.6L492.8 274c-.2.1-.4.2-.6.1-2-1.1-5.2-2.3-6.1-1.8 0 0-.1.1-.1.3zm59.4-22.7z"/><path fill="#ff7545" d="M518 196.2c.6.4 6.6 2.7 11.5 10.2 3.5 5.4 10.7 20.5 10.7 20.5 2.1 2.5-20.3 19.6-22.9 16.3 0 0-10.1-15.7-10.5-24.2-.6-10.7 11.2-22.8 11.2-22.8z"/><path fill="#060405" d="M518.4 244.1c-.6 0-1.1-.2-1.4-.5-.4-.7-10.2-16-10.6-24.5 0-.3.2-.5.5-.5s.5.2.5.5c.4 8.2 10.3 23.8 10.4 23.9.1.1.3.1.7.1 4.4-.3 18-9.8 20.8-14.6.1-.2.5-.3.7-.2.2.1.3.4.2.7-3 5.1-17 14.8-21.6 15.1h-.2z"/><path fill="#fff" d="M481.8 185.2s-2.2 4.4-4.7 8.2c-1.9 2.9 1.7 8.5 4.9 10.2 5.3 2.8 15.6-9.7 15.6-9.7l.4-27.5-16.2 18.8z"/><path fill="#060405" d="M481.7 204c-2.4-1.2-4.7-4.3-5.5-7-.4-1.5-.3-2.9.4-3.9 2.5-3.8 4.7-8.1 4.7-8.2l.1-.1 17-19.8v28l-.1.1c-3.3 4.1-11.9 13.4-16.6 10.9zm.5-18.6c-.3.5-2.4 4.6-4.7 8.2-.6 1-.5 2.2-.2 3.1.7 2.5 2.8 5.3 5 6.4 4 2.1 12.3-6.7 15.3-10.5v-24.9l-15.4 17.7z"/><path fill="#fff" d="M497.3 162.8c-.3.4-2.8 25.9-18.1 24.2-15.4-1.7-11.4-33.5-4.5-40.5s20.9-.7 20.9-.7l4.6 11.1-2.9 5.9z"/><path fill="#060405" d="M480.6 187.6c-.5 0-1 0-1.5-.1-4.4-.5-7.6-3.4-9.4-8.4-3.7-10.4-.5-27.7 4.6-32.9 7-7.2 20.9-1.1 21.4-.8l.2.1 4.8 11.5-2.9 6.2c0 .1-.1.4-.1.7-2.7 15.3-8.7 23.7-17.1 23.7zm3.2-44c-3.2 0-6.4.8-8.8 3.2-4.8 5-8 22-4.4 31.9 1.7 4.7 4.6 7.3 8.6 7.8 8.7 1 14.7-6.9 17.4-22.9.1-.7.2-.9.2-1l2.7-5.8-4.4-10.7c-1-.4-6.1-2.5-11.3-2.5z"/><ellipse cx="484.5" cy="163" fill="#060405" rx="1.5" ry="1.1" transform="rotate(-87.798 484.49 162.999) scale(1.00004)"/><ellipse cx="474.3" cy="162.9" fill="#060405" rx="1.5" ry="1.1" transform="rotate(-87.798 474.328 162.914) scale(1.00004)"/><path fill="#060405" d="M479.3 172.7c-.1-.1-.3-.1-1-.2-.8-.1-1.3-.5-1.4-1.1-.1-.7.4-1.2.7-1.5 1.3-1.4 1.9-3.5 1.5-5.4l1-.2c.5 2.2-.2 4.6-1.7 6.3-.2.2-.5.5-.4.7 0 .1.3.2.6.3.5.1 1 .1 1.4.4l-.7.7zM479.8 180.3l.4-.9c.6.2 1.3.2 1.9 0 .6-.3 1.1-.8 1.3-1.4l.9.4c-.3.9-1 1.6-1.9 1.9-.8.3-1.7.4-2.6 0zM465.8 150.7c.6.4 1.3.7 2.1 1 6.1 2 22.4-1.7 22.9.6s1.5 16 2.5 14.3c2-3.2 2.7-8.4 2.8.7-.1 3.4.9 8.6.9 8.6 8.8-.2 17.2-20.8 8.6-22.3 0 0 2.6-4.1 1-7.7-1.6-3.7-13.2-23.9-35.3-8.3-.4-.5-4.4-5.2-6-1.9-1.5 3-4 12.2.5 15zM452.9 242.7c-.1 0-.1 0 0 0-.3 0-.5-.3-.5-.5l1.5-17.4c0-.3.3-.5.5-.5.3 0 .5.3.5.5l-1.5 17.4c-.1.3-.3.5-.5.5z"/><circle cx="177.6" cy="167.7" r="25.6" fill="#efc102"/><circle cx="177.6" cy="167.7" r="19.3" fill="#efc102"/><path d="M194 157.5c-3.5-3.7-8.5-6-14-6-10.7 0-19.3 8.7-19.3 19.3 0 3.7 1.1 7.2 2.9 10.2-3.3-3.5-5.4-8.2-5.4-13.4 0-10.7 8.7-19.3 19.3-19.3 7 0 13.1 3.7 16.5 9.2z" opacity=".15"/><path fill="#fff" d="M183.3 174.1c-.5.7-1.1 1.3-2 1.7-.9.4-1.9.7-3 .7v1.8c0 .2-.1.4-.2.5-.1.1-.3.2-.6.2-.2 0-.4-.1-.5-.2-.1-.1-.2-.3-.2-.5v-1.8c-1.8-.1-3.4-.5-5-1.2-.2-.1-.4-.2-.5-.4-.1-.2-.2-.4-.2-.6 0-.3.1-.5.3-.7.2-.2.4-.3.7-.3.2 0 .3 0 .5.1 1.3.6 2.7.9 4.2 1v-5.7c-1.1-.3-2.1-.6-2.8-1-.8-.3-1.4-.8-1.9-1.5-.5-.6-.8-1.4-.8-2.4 0-.9.2-1.6.6-2.4.4-.7 1-1.3 1.9-1.8.8-.5 1.8-.8 3-.9V157c0-.2.1-.4.2-.5.1-.1.3-.2.5-.2s.4.1.5.2c.1.1.2.3.2.5v1.7c1.6.1 3 .3 4.3.8.5.2.7.5.7 1 0 .3-.1.5-.3.7-.2.2-.4.3-.7.3-.1 0-.2 0-.4-.1-1.1-.4-2.3-.6-3.6-.7v5.9c1.2.3 2.2.6 2.9.9.8.3 1.4.8 2 1.5.5.7.8 1.5.8 2.6.1 1-.1 1.8-.6 2.5zm-8.9-8.7c.6.4 1.4.7 2.4 1V161c-1 .1-1.8.4-2.4.9-.6.5-.9 1.1-.9 1.8.1.7.3 1.3.9 1.7zm7.4 6.2c0-.6-.3-1.1-.9-1.5-.6-.4-1.5-.7-2.6-1v5.3c2.3-.2 3.5-1.1 3.5-2.8z"/><circle cx="148" cy="117.4" r="19.3" fill="#efc102"/><circle cx="148" cy="117.4" r="14.6" fill="#efc102"/><path d="M160.4 109.7c-2.7-2.8-6.4-4.5-10.6-4.5-8.1 0-14.6 6.5-14.6 14.6 0 2.8.8 5.4 2.2 7.7-2.5-2.6-4-6.2-4-10.1 0-8.1 6.5-14.6 14.6-14.6 5.2 0 9.8 2.8 12.4 6.9z" opacity=".15"/><path fill="#fff" d="M152.3 122.2c-.4.5-.9 1-1.5 1.3-.7.3-1.4.5-2.3.5v1.3c0 .2-.1.3-.2.4-.1.1-.2.2-.4.2s-.3 0-.4-.1c-.1-.1-.2-.2-.2-.4v-1.3c-1.3-.1-2.6-.4-3.8-.9-.1-.1-.3-.2-.4-.3-.1-.1-.1-.3-.1-.5s.1-.4.2-.5c.1-.2.3-.2.5-.2.1 0 .2 0 .4.1 1 .4 2.1.7 3.2.7v-4.3c-.8-.2-1.6-.5-2.1-.7-.6-.3-1.1-.6-1.4-1.1-.4-.5-.6-1.1-.6-1.8 0-.6.2-1.2.5-1.8.3-.5.8-1 1.4-1.4.6-.4 1.4-.6 2.3-.7v-1.3c0-.2.1-.3.2-.4.1-.1.2-.2.4-.2s.3.1.4.2c.1.1.2.2.2.4v1.3c1.2 0 2.3.3 3.2.6.3.1.5.4.5.7 0 .2-.1.4-.2.5-.1.2-.3.2-.5.2-.1 0-.2 0-.3-.1-.8-.3-1.8-.5-2.7-.5v4.4c.9.2 1.6.4 2.2.7.6.2 1.1.6 1.5 1.1.4.5.6 1.1.6 1.9-.1.9-.2 1.5-.6 2zm-6.7-6.5c.4.3 1 .6 1.8.8v-4.1c-.7.1-1.3.3-1.8.7-.4.4-.7.8-.7 1.4 0 .5.2.9.7 1.2zm5.6 4.6c0-.5-.2-.9-.7-1.1-.4-.3-1.1-.5-2-.8v4c1.8-.1 2.7-.8 2.7-2.1z"/><circle cx="116.7" cy="161.8" r="22.5" fill="#efc102"/><circle cx="116.7" cy="161.8" r="17" fill="#efc102"/><path d="M131.2 152.9c-3.1-3.2-7.4-5.3-12.3-5.3-9.4 0-17 7.6-17 17 0 3.3.9 6.3 2.5 8.9-2.9-3-4.7-7.2-4.7-11.7 0-9.4 7.6-17 17-17 6.1 0 11.5 3.2 14.5 8.1z" opacity=".15"/><path fill="#fff" d="M121.8 167.4c-.4.6-1 1.1-1.8 1.5-.8.4-1.6.6-2.6.6v1.5c0 .2-.1.3-.2.5-.1.1-.3.2-.5.2s-.3-.1-.5-.2c-.1-.1-.2-.3-.2-.5v-1.5c-1.6-.1-3-.4-4.4-1-.2-.1-.3-.2-.4-.4-.1-.2-.2-.3-.2-.5s.1-.5.2-.6c.2-.2.4-.3.6-.3.1 0 .3 0 .4.1 1.2.5 2.4.8 3.7.9v-5c-1-.3-1.8-.5-2.5-.8-.7-.3-1.2-.7-1.7-1.3-.4-.6-.7-1.3-.7-2.1s.2-1.4.6-2.1c.4-.6.9-1.2 1.6-1.6.7-.4 1.6-.7 2.6-.8v-1.5c0-.2.1-.3.2-.5.1-.1.3-.2.5-.2s.3.1.5.2c.1.1.2.3.2.5v1.5c1.4.1 2.7.3 3.8.7.4.1.6.4.6.9 0 .2-.1.4-.2.6-.2.2-.4.3-.6.3-.1 0-.2 0-.3-.1-1-.3-2-.5-3.2-.6v5.2c1 .2 1.9.5 2.6.8.7.3 1.3.7 1.7 1.3.5.6.7 1.3.7 2.3.1.7-.1 1.4-.5 2zm-7.9-7.6c.5.3 1.2.6 2.1.9v-4.8c-.9.1-1.6.4-2.1.8s-.8.9-.8 1.6c.1.6.3 1.1.8 1.5zm6.5 5.4c0-.6-.3-1-.8-1.3-.5-.3-1.3-.6-2.3-.9v4.7c2.1-.2 3.1-1 3.1-2.5z"/><path fill="#6193f6" d="M459.3 89.9v36.8c0 1.2-1 2.2-2.2 2.2h-43.7c-1.2 0-2.2-1-2.2-2.2V89.9c0-1.2 1-2.2 2.2-2.2h43.7c1.3 0 2.2 1 2.2 2.2z"/><path fill="#fff" d="M433.9 100.5v4.2c0 .4-.3.7-.7.7H429c-.4 0-.7-.3-.7-.7v-4.2c0-.4.3-.7.7-.7h4.2c.4 0 .7.4.7.7zM443.9 100.5v4.2c0 .4-.3.7-.7.7H439c-.4 0-.7-.3-.7-.7v-4.2c0-.4.3-.7.7-.7h4.2c.4 0 .7.4.7.7zM453.9 100.5v4.2c0 .4-.3.7-.7.7H449c-.4 0-.7-.3-.7-.7v-4.2c0-.4.3-.7.7-.7h4.2c.4 0 .7.4.7.7zM423.9 108.9v4.2c0 .4-.3.7-.7.7H419c-.4 0-.7-.3-.7-.7v-4.2c0-.4.3-.7.7-.7h4.2c.4.1.7.4.7.7zM433.9 108.9v4.2c0 .4-.3.7-.7.7H429c-.4 0-.7-.3-.7-.7v-4.2c0-.4.3-.7.7-.7h4.2c.4.1.7.4.7.7zM443.9 108.9v4.2c0 .4-.3.7-.7.7H439c-.4 0-.7-.3-.7-.7v-4.2c0-.4.3-.7.7-.7h4.2c.4.1.7.4.7.7zM453.9 108.9v4.2c0 .4-.3.7-.7.7H449c-.4 0-.7-.3-.7-.7v-4.2c0-.4.3-.7.7-.7h4.2c.4.1.7.4.7.7zM423.9 117.4v4.2c0 .4-.3.7-.7.7H419c-.4 0-.7-.3-.7-.7v-4.2c0-.4.3-.7.7-.7h4.2c.4 0 .7.3.7.7zM433.9 117.4v4.2c0 .4-.3.7-.7.7H429c-.4 0-.7-.3-.7-.7v-4.2c0-.4.3-.7.7-.7h4.2c.4 0 .7.3.7.7z"/><path fill="#f2cb2a" d="M422.2 86v4.7c0 .6-.5 1-1 1-.6 0-1.1-.5-1.1-1V86c0-.6.5-1 1.1-1 .5 0 1 .5 1 1zM452.3 86v4.7c0 .6-.5 1-1 1-.6 0-1.1-.5-1.1-1V86c0-.6.5-1 1.1-1 .6 0 1 .5 1 1z"/><path fill="#bdd6ff" d="m506.1 89 2.9 14.1 19.8-41.6-28.1 12.6 3.5 7.7 12.1-8.1L506.1 89"/><path fill="#060405" d="m504.2 81.8 5.7 1.4 6.4-9.5z"/><path fill="#c6e2fa" d="M173.5 241.8h-34.1c-.2 0-.4-.2-.4-.4s.2-.4.4-.4h34.1c.2 0 .4.2.4.4s-.2.4-.4.4zM173.5 258.7h-34.1c-.2 0-.4-.2-.4-.4s.2-.4.4-.4h34.1c.2 0 .4.2.4.4s-.2.4-.4.4zM167.3 250.3h-48.2c-.2 0-.4-.2-.4-.4s.2-.4.4-.4h48.2c.2 0 .4.2.4.4s-.2.4-.4.4z"/><path fill="#c6e2fa" d="M146.4 241.8c-.2 0-.4-.2-.4-.4v-7.2c0-.2.2-.4.4-.4s.4.2.4.4v7.2c0 .3-.2.4-.4.4zM158.4 250.3c-.2 0-.4-.2-.4-.4v-8.4c0-.2.2-.4.4-.4s.4.2.4.4v8.4c0 .2-.2.4-.4.4zM149.3 258.5c-.2 0-.4-.2-.4-.4v-8.2c0-.2.2-.4.4-.4s.4.2.4.4v8.2c0 .2-.2.4-.4.4zM120.4 111.4H91.5c-.2 0-.4-.2-.4-.4s.2-.4.4-.4h28.9c.2 0 .4.2.4.4s-.2.4-.4.4zM120.4 125.7H91.5c-.2 0-.4-.2-.4-.4s.2-.4.4-.4h28.9c.2 0 .4.2.4.4s-.2.4-.4.4zM115.2 118.6h-41c-.2 0-.4-.2-.4-.4s.2-.4.4-.4h40.9c.2 0 .4.2.4.4s-.1.4-.3.4z"/><path fill="#c6e2fa" d="M97.4 111.4c-.2 0-.4-.2-.4-.4v-6.1c0-.2.2-.4.4-.4s.4.2.4.4v6.1c0 .2-.2.4-.4.4zM107.6 118.6c-.2 0-.4-.2-.4-.4V111c0-.2.2-.4.4-.4s.4.2.4.4v7.2c0 .2-.2.4-.4.4zM99.9 125.5c-.2 0-.4-.2-.4-.4v-6.9c0-.2.2-.4.4-.4s.4.2.4.4v6.9c0 .2-.2.4-.4.4z"/></svg>