<svg width="122" height="21" viewBox="0 0 122 21" fill="none" xmlns="http://www.w3.org/2000/svg">
<path d="M4.5881 3.92828L7.87521 13.2095L11.1447 3.92828H14.6076V16.7252H11.9621V13.2271L12.2258 7.18903L8.7717 16.7252H6.96115L3.51584 7.19781L3.77951 13.2271V16.7252H1.14279V3.92828H4.5881ZM24.2932 14.0884H19.6701L18.7912 16.7252H15.9875L20.7512 3.92828H23.1945L27.9846 16.7252H25.1809L24.2932 14.0884ZM20.382 11.9527H23.5813L21.9729 7.16266L20.382 11.9527ZM37.758 6.06403H33.8381V16.7252H31.2014V6.06403H27.3342V3.92828H37.758V6.06403ZM46.969 11.1793H41.9065V14.607H47.8479V16.7252H39.2697V3.92828H47.8303V6.06403H41.9065V9.11383H46.969V11.1793ZM54.132 12.0406H52.0315V16.7252H49.3947V3.92828H54.1496C55.6613 3.92828 56.8274 4.2652 57.6477 4.93903C58.468 5.61285 58.8781 6.565 58.8781 7.79547C58.8781 8.66852 58.6877 9.39801 58.3069 9.98395C57.9319 10.564 57.3606 11.0269 56.593 11.3726L59.3615 16.6021V16.7252H56.5315L54.132 12.0406ZM52.0315 9.90485H54.1584C54.8205 9.90485 55.3332 9.73785 55.6965 9.40387C56.0598 9.06403 56.2414 8.59821 56.2414 8.00641C56.2414 7.40289 56.0686 6.92828 55.7229 6.58258C55.383 6.23688 54.8586 6.06403 54.1496 6.06403H52.0315V9.90485ZM63.6945 16.7252H61.0578V3.92828H63.6945V16.7252ZM73.5295 14.0884H68.9065L68.0276 16.7252H65.2238L69.9875 3.92828H72.4309L77.2209 16.7252H74.4172L73.5295 14.0884ZM69.6184 11.9527H72.8176L71.2092 7.16266L69.6184 11.9527ZM81.0529 14.607H86.6516V16.7252H78.4162V3.92828H81.0529V14.607ZM89.7278 11.5132V16.7252H88.6467V3.92828H93.0061C94.3362 3.92828 95.385 4.26813 96.1526 4.94781C96.926 5.6275 97.3127 6.56207 97.3127 7.75153C97.3127 8.9527 96.9406 9.88141 96.1965 10.5377C95.4582 11.188 94.386 11.5132 92.9797 11.5132H89.7278ZM89.7278 10.5992H93.0061C94.0549 10.5992 94.8547 10.3502 95.4055 9.85211C95.9563 9.35406 96.2317 8.65973 96.2317 7.7691C96.2317 6.88434 95.9563 6.18121 95.4055 5.65973C94.8606 5.13239 94.0842 4.86285 93.0764 4.85114H89.7278V10.5992ZM104.52 11.399H100.802V16.7252H99.7121V3.92828H103.869C105.235 3.92828 106.301 4.25934 107.069 4.92145C107.836 5.58356 108.22 6.50934 108.22 7.69879C108.22 8.5191 107.98 9.24274 107.499 9.86969C107.019 10.4966 106.374 10.9302 105.566 11.1705L108.765 16.6109V16.7252H107.613L104.52 11.399ZM100.802 10.4761H104.115C105.024 10.4761 105.753 10.2183 106.304 9.7027C106.855 9.18707 107.13 8.5191 107.13 7.69879C107.13 6.79645 106.843 6.09625 106.269 5.59821C105.695 5.10016 104.889 4.85114 103.852 4.85114H100.802V10.4761ZM120.621 11.0211C120.621 12.1988 120.416 13.233 120.006 14.1236C119.602 15.0142 119.022 15.6998 118.266 16.1802C117.51 16.6607 116.637 16.9009 115.647 16.9009C114.153 16.9009 112.946 16.3677 112.026 15.3013C111.106 14.2291 110.646 12.7847 110.646 10.9683V9.64996C110.646 8.48395 110.851 7.4527 111.261 6.55621C111.677 5.65387 112.263 4.96246 113.019 4.48199C113.775 3.99567 114.645 3.7525 115.629 3.7525C116.613 3.7525 117.481 3.98981 118.231 4.46442C118.987 4.93903 119.57 5.60992 119.98 6.47711C120.39 7.3443 120.604 8.34918 120.621 9.49176V11.0211ZM119.54 9.63239C119.54 8.09137 119.192 6.88434 118.494 6.01129C117.797 5.13824 116.842 4.70172 115.629 4.70172C114.44 4.70172 113.49 5.14117 112.781 6.02008C112.078 6.89313 111.727 8.11481 111.727 9.68512V11.0211C111.727 12.5386 112.078 13.7427 112.781 14.6334C113.485 15.5181 114.44 15.9605 115.647 15.9605C116.871 15.9605 117.826 15.524 118.512 14.6509C119.197 13.772 119.54 12.5504 119.54 10.9859V9.63239Z" fill="#525C65"/>
</svg>
