<svg width="164" height="24" viewBox="0 0 164 24" fill="none" xmlns="http://www.w3.org/2000/svg">
<path d="M1.2041 5.46388H3.4365L6.7236 14.8594L10.0107 5.46388H12.2432L7.6201 18.2608H5.8271L1.2041 5.46388ZM0 5.46388H2.2236L2.6279 14.6221V18.2608H0V5.46388ZM11.2236 5.46388H13.456V18.2608H10.8193V14.6221L11.2236 5.46388ZM21.1289 7.65235L17.6484 18.2608H14.8447L19.5996 5.46388H21.3838L21.1289 7.65235ZM24.0205 18.2608L20.5312 7.65235L20.25 5.46388H22.0517L26.833 18.2608H24.0205ZM23.8623 13.4971V15.5625H17.1035V13.4971H23.8623ZM32.6514 5.46388V18.2608H30.0234V5.46388H32.6514ZM36.5889 5.46388V7.52931H26.1475V5.46388H36.5889ZM46.6787 16.2041V18.2608H39.8672V16.2041H46.6787ZM40.7285 5.46388V18.2608H38.0918V5.46388H40.7285ZM45.791 10.6758V12.6797H39.8672V10.6758H45.791ZM46.6699 5.46388V7.52931H39.8672V5.46388H46.6699ZM48.2168 5.46388H52.9892C53.9678 5.46388 54.8086 5.61036 55.5117 5.90333C56.2207 6.1963 56.7656 6.62989 57.1462 7.20411C57.5272 7.77833 57.7182 8.48438 57.7182 9.32227C57.7182 10.0078 57.6002 10.5967 57.3662 11.0889C57.1372 11.5752 56.8125 11.9825 56.3906 12.3106C55.9746 12.6328 55.4853 12.8907 54.9228 13.084L54.0879 13.5235H49.9394L49.9219 11.4668H53.0068C53.4697 11.4668 53.8535 11.3848 54.1582 11.2207C54.4629 11.0567 54.6914 10.8282 54.8437 10.5352C55.0019 10.2422 55.081 9.90235 55.081 9.51563C55.081 9.10548 55.0049 8.75099 54.8525 8.45216C54.7002 8.15333 54.4687 7.92481 54.1582 7.76661C53.8476 7.60841 53.458 7.52931 52.9892 7.52931H50.8535V18.2608H48.2168V5.46388ZM55.3711 18.2608L52.4531 12.5567L55.2392 12.5391L58.1922 18.1377V18.2608H55.3711ZM62.5522 5.46388V18.2608H59.9242V5.46388H62.5522ZM70.3832 7.65235L66.9022 18.2608H64.0982L68.8532 5.46388H70.6372L70.3832 7.65235ZM73.2742 18.2608L69.7852 7.65235L69.5042 5.46388H71.3052L76.0872 18.2608H73.2742ZM73.1162 13.4971V15.5625H66.3572V13.4971H73.1162ZM85.5002 16.2041V18.2608H79.0572V16.2041H85.5002ZM79.9102 5.46388V18.2608H77.2732V5.46388H79.9102ZM91.8452 13.0489H88.1982V12.126H91.8452C92.6072 12.126 93.2252 12.003 93.7002 11.7569C94.1802 11.5049 94.5292 11.1651 94.7462 10.7373C94.9692 10.3096 95.0802 9.82911 95.0802 9.29591C95.0802 8.77442 94.9692 8.29395 94.7462 7.8545C94.5292 7.41505 94.1802 7.06349 93.7002 6.79981C93.2252 6.53028 92.6072 6.39552 91.8452 6.39552H88.5762V18.2608H87.4952V5.46388H91.8452C92.7832 5.46388 93.5712 5.62501 94.2102 5.94727C94.8542 6.26954 95.3412 6.71778 95.6692 7.292C95.9972 7.86622 96.1612 8.52833 96.1612 9.27833C96.1612 10.0635 95.9972 10.7403 95.6692 11.3086C95.3412 11.8711 94.8572 12.3018 94.2192 12.6006C93.5802 12.8994 92.7892 13.0489 91.8452 13.0489ZM98.5602 5.46388H102.718C103.602 5.46388 104.37 5.60743 105.02 5.89454C105.671 6.18165 106.172 6.60645 106.523 7.16895C106.881 7.72559 107.059 8.41114 107.059 9.22559C107.059 9.82911 106.93 10.377 106.673 10.8692C106.421 11.3614 106.072 11.7744 105.627 12.1084C105.181 12.4366 104.666 12.6621 104.08 12.7852L103.702 12.9258H99.2632L99.2462 12.003H102.964C103.632 12.003 104.188 11.8741 104.634 11.6162C105.079 11.3584 105.413 11.0186 105.636 10.5967C105.864 10.1689 105.978 9.71192 105.978 9.22559C105.978 8.64552 105.852 8.14454 105.6 7.72267C105.354 7.29493 104.988 6.96681 104.502 6.73829C104.015 6.50977 103.421 6.39552 102.718 6.39552H99.6412V18.2608H98.5602V5.46388ZM106.462 18.2608L103.148 12.5391L104.308 12.5303L107.613 18.1465V18.2608H106.462ZM119.478 11.1768V12.5479C119.478 13.4444 119.361 14.2559 119.127 14.9825C118.898 15.7032 118.564 16.3213 118.125 16.8369C117.691 17.3526 117.17 17.7481 116.56 18.0235C115.951 18.2989 115.265 18.4366 114.504 18.4366C113.76 18.4366 113.08 18.2989 112.465 18.0235C111.855 17.7481 111.331 17.3526 110.891 16.8369C110.452 16.3213 110.112 15.7032 109.872 14.9825C109.632 14.2559 109.512 13.4444 109.512 12.5479V11.1768C109.512 10.2803 109.629 9.47169 109.863 8.75099C110.103 8.02442 110.443 7.40333 110.883 6.8877C111.322 6.37208 111.846 5.97657 112.456 5.70118C113.065 5.42579 113.742 5.28809 114.486 5.28809C115.248 5.28809 115.933 5.42579 116.543 5.70118C117.152 5.97657 117.677 6.37208 118.116 6.8877C118.555 7.40333 118.892 8.02442 119.127 8.75099C119.361 9.47169 119.478 10.2803 119.478 11.1768ZM118.406 12.5479V11.1592C118.406 10.4033 118.318 9.72364 118.142 9.12013C117.972 8.51661 117.718 8.00099 117.378 7.57325C117.044 7.14552 116.634 6.81739 116.147 6.58888C115.661 6.36036 115.107 6.2461 114.486 6.2461C113.883 6.2461 113.341 6.36036 112.86 6.58888C112.38 6.81739 111.97 7.14552 111.63 7.57325C111.296 8.00099 111.038 8.51661 110.856 9.12013C110.68 9.72364 110.593 10.4033 110.593 11.1592V12.5479C110.593 13.3096 110.68 13.9951 110.856 14.6045C111.038 15.208 111.299 15.7266 111.638 16.1602C111.978 16.5879 112.388 16.916 112.869 17.1446C113.355 17.3731 113.9 17.4873 114.504 17.4873C115.131 17.4873 115.684 17.3731 116.165 17.1446C116.645 16.916 117.053 16.5879 117.387 16.1602C117.72 15.7266 117.972 15.208 118.142 14.6045C118.318 13.9951 118.406 13.3096 118.406 12.5479Z" fill="white"/>
<path d="M132.479 2.84507C132.479 5.29848 133.279 6.49908 136.479 8.69149C140.029 11.1449 140.479 11.9279 140.479 15.5819C140.479 20.6975 141.979 23.7252 144.529 23.7252C146.279 23.7252 146.479 22.9944 146.479 15.6341L146.429 7.54308L140.029 3.62807C132.329 -1.06995 132.479 -1.06995 132.479 2.84507Z" fill="white"/>
<path d="M154.729 3.68049L148.529 7.54331L148.479 15.6343C148.479 22.9946 148.679 23.7254 150.429 23.7254C152.979 23.7254 154.479 20.6977 154.479 15.5821C154.479 11.9281 154.929 11.1451 158.479 8.69171C161.679 6.4993 162.479 5.2987 162.479 2.84529C162.479 -1.06973 162.329 -1.01753 154.729 3.68049Z" fill="white"/>
</svg>
