<svg width="122" height="20" viewBox="0 0 122 20" fill="none" xmlns="http://www.w3.org/2000/svg">
<path d="M4.58789 3.20312L7.875 12.4844L11.1445 3.20312H14.6074V16H11.9619V12.502L12.2256 6.46387L8.77148 16H6.96094L3.51562 6.47266L3.7793 12.502V16H1.14258V3.20312H4.58789ZM24.293 13.3633H19.6699L18.791 16H15.9873L20.751 3.20312H23.1943L27.9844 16H25.1807L24.293 13.3633ZM20.3818 11.2275H23.5811L21.9727 6.4375L20.3818 11.2275ZM37.7578 5.33887H33.8379V16H31.2012V5.33887H27.334V3.20312H37.7578V5.33887ZM46.9688 10.4541H41.9062V13.8818H47.8477V16H39.2695V3.20312H47.8301V5.33887H41.9062V8.38867H46.9688V10.4541ZM54.1318 11.3154H52.0312V16H49.3945V3.20312H54.1494C55.6611 3.20312 56.8271 3.54004 57.6475 4.21387C58.4678 4.8877 58.8779 5.83984 58.8779 7.07031C58.8779 7.94336 58.6875 8.67285 58.3066 9.25879C57.9316 9.83887 57.3604 10.3018 56.5928 10.6475L59.3613 15.877V16H56.5312L54.1318 11.3154ZM52.0312 9.17969H54.1582C54.8203 9.17969 55.333 9.0127 55.6963 8.67871C56.0596 8.33887 56.2412 7.87305 56.2412 7.28125C56.2412 6.67773 56.0684 6.20312 55.7227 5.85742C55.3828 5.51172 54.8584 5.33887 54.1494 5.33887H52.0312V9.17969ZM63.6943 16H61.0576V3.20312H63.6943V16ZM73.5293 13.3633H68.9062L68.0273 16H65.2236L69.9873 3.20312H72.4307L77.2207 16H74.417L73.5293 13.3633ZM69.6182 11.2275H72.8174L71.209 6.4375L69.6182 11.2275ZM81.0527 13.8818H86.6514V16H78.416V3.20312H81.0527V13.8818ZM89.7275 10.7881V16H88.6465V3.20312H93.0059C94.3359 3.20312 95.3848 3.54297 96.1523 4.22266C96.9258 4.90234 97.3125 5.83691 97.3125 7.02637C97.3125 8.22754 96.9404 9.15625 96.1963 9.8125C95.458 10.4629 94.3857 10.7881 92.9795 10.7881H89.7275ZM89.7275 9.87402H93.0059C94.0547 9.87402 94.8545 9.625 95.4053 9.12695C95.9561 8.62891 96.2314 7.93457 96.2314 7.04395C96.2314 6.15918 95.9561 5.45605 95.4053 4.93457C94.8604 4.40723 94.084 4.1377 93.0762 4.12598H89.7275V9.87402ZM104.52 10.6738H100.802V16H99.7119V3.20312H103.869C105.234 3.20312 106.301 3.53418 107.068 4.19629C107.836 4.8584 108.22 5.78418 108.22 6.97363C108.22 7.79395 107.979 8.51758 107.499 9.14453C107.019 9.77148 106.374 10.2051 105.565 10.4453L108.765 15.8857V16H107.613L104.52 10.6738ZM100.802 9.75098H104.115C105.023 9.75098 105.753 9.49316 106.304 8.97754C106.854 8.46191 107.13 7.79395 107.13 6.97363C107.13 6.07129 106.843 5.37109 106.269 4.87305C105.694 4.375 104.889 4.12598 103.852 4.12598H100.802V9.75098ZM120.621 10.2959C120.621 11.4736 120.416 12.5078 120.006 13.3984C119.602 14.2891 119.021 14.9746 118.266 15.4551C117.51 15.9355 116.637 16.1758 115.646 16.1758C114.152 16.1758 112.945 15.6426 112.025 14.5762C111.105 13.5039 110.646 12.0596 110.646 10.2432V8.9248C110.646 7.75879 110.851 6.72754 111.261 5.83105C111.677 4.92871 112.263 4.2373 113.019 3.75684C113.774 3.27051 114.645 3.02734 115.629 3.02734C116.613 3.02734 117.48 3.26465 118.23 3.73926C118.986 4.21387 119.569 4.88477 119.979 5.75195C120.39 6.61914 120.604 7.62402 120.621 8.7666V10.2959ZM119.54 8.90723C119.54 7.36621 119.191 6.15918 118.494 5.28613C117.797 4.41309 116.842 3.97656 115.629 3.97656C114.439 3.97656 113.49 4.41602 112.781 5.29492C112.078 6.16797 111.727 7.38965 111.727 8.95996V10.2959C111.727 11.8135 112.078 13.0176 112.781 13.9082C113.484 14.793 114.439 15.2354 115.646 15.2354C116.871 15.2354 117.826 14.7988 118.512 13.9258C119.197 13.0469 119.54 11.8252 119.54 10.2607V8.90723Z" fill="white"/>
</svg>
